#!OML:ASF X:\für Bonn\!DataBase\2005_08_10_Bjorn_Final\c3d\bjorn.ASF
:FULLY-SPECIFIED
:DEGREES
123
root 0.55872 12.814 3.67454 -176.304 -6.15612 177.264
lowerback 24.8806 0.576998 3.92585
upperback 12.2676 -1.3007 0.00894152
thorax -0.270207 -1.65062 -1.90453
lowerneck -20.1921 -3.11223 3.32223
upperneck -10.242 -6.85973 0.98423
head -0.0514815 -4.41795 -0.63228
rclavicle 5.1684e-015 1.55052e-014
rhumerus 81.9461 -3.50286 -73.9177
rradius 7.66481
rwrist 50.072
rhand -12.256 8.87524
rfingers 7.12502
rthumb 13.8103 -20.6463
lclavicle 5.1684e-015 1.55052e-014
lhumerus 81.3953 -3.89983 54.5304
lradius 11.2634
lwrist -39.0773
lhand -20.6491 -9.81698
lfingers 7.12502
lthumb 5.71313 20.086
rfemur -67.0027 -15.5406 11.7458
rtibia 117.294
rfoot -32.3651 26.216
rtoes -24.0504
lfemur -69.1298 8.88379 -21.9884
ltibia 119.457
lfoot -25.3489 -11.2952
ltoes -25.3207
124
root 0.561137 13.0277 3.65005 -176.02 -6.19388 177.227
lowerback 24.4012 0.56467 3.92231
upperback 12.2325 -1.28737 0.0214877
thorax -0.0812184 -1.62206 -1.90225
lowerneck -19.9076 -3.15779 3.41143
upperneck -10.2314 -6.89122 0.959435
head -0.0957596 -4.42184 -0.647141
rclavicle 8.74653e-015 3.97569e-016
rhumerus 82.114 -3.53027 -73.8661
rradius 7.6789
rwrist 49.8881
rhand -12.4096 8.94556
rfingers 7.12502
rthumb 13.6623 -20.586
lclavicle 8.74653e-015 3.97569e-016
lhumerus 81.6203 -3.75868 53.9864
lradius 11.038
lwrist -38.3885
lhand -20.1815 -9.85515
lfingers 7.12502
lthumb 6.16464 20.0352
rfemur -65.9246 -14.4972 11.9052
rtibia 115.4
rfoot -32.365 25.3085
rtoes -23.9235
lfemur -68.1559 8.3175 -21.9879
ltibia 117.643
lfoot -25.0301 -11.119
ltoes -24.7822
125
root 0.562846 13.2444 3.62258 -175.81 -6.26196 177.191
lowerback 23.9707 0.539582 3.90875
upperback 12.1986 -1.29548 0.0500462
thorax 0.0858021 -1.60773 -1.87081
lowerneck -19.6565 -3.19591 3.40013
upperneck -10.1625 -6.88391 1.05767
head -0.107924 -4.39726 -0.607374
rclavicle -6.36111e-015 -1.19271e-014
rhumerus 82.2043 -3.49398 -73.8026
rradius 7.73358
rwrist 49.725
rhand -12.5582 8.99853
rfingers 7.12502
rthumb 13.5191 -20.5426
lclavicle -6.36111e-015 -1.19271e-014
lhumerus 81.7525 -3.60128 53.7892
lradius 10.8722
lwrist -38.1297
lhand -19.7075 -9.83575
lfingers 7.12502
lthumb 6.6222 20.0407
rfemur -64.7165 -13.5741 12.022
rtibia 113.457
rfoot -32.4135 24.4639
rtoes -23.8773
lfemur -67.0499 7.77339 -21.9786
ltibia 115.77
lfoot -24.6972 -10.9598
ltoes -24.232
126
root 0.565415 13.4641 3.59169 -175.657 -6.33001 177.138
lowerback 23.5382 0.526502 3.89846
upperback 12.1944 -1.29789 0.061917
thorax 0.288166 -1.59254 -1.86158
lowerneck -19.5314 -3.26591 3.27199
upperneck -9.97656 -6.89096 1.29717
head -0.0540617 -4.36836 -0.512505
rclavicle 1.43125e-014 1.19271e-014
rhumerus 82.2463 -3.48304 -73.7543
rradius 7.81818
rwrist 49.6555
rhand -12.6851 9.01524
rfingers 7.12502
rthumb 13.3967 -20.534
lclavicle 1.43125e-014 1.19271e-014
lhumerus 81.8591 -3.46976 53.7975
lradius 10.7945
lwrist -38.1286
lhand -19.4138 -9.70233
lfingers 7.12502
lthumb 6.90574 20.165
rfemur -63.3876 -12.7136 12.1066
rtibia 111.451
rfoot -32.4544 23.6767
rtoes -23.6534
lfemur -65.8362 7.26613 -21.9732
ltibia 113.843
lfoot -24.3869 -10.81
ltoes -23.6336
127
root 0.568425 13.6863 3.55847 -175.56 -6.4593 177.118
lowerback 23.1224 0.498746 3.93798
upperback 12.2053 -1.31485 0.0847745
thorax 0.500275 -1.58455 -1.86575
lowerneck -19.4248 -3.32033 3.16721
upperneck -9.81526 -6.8904 1.5216
head -0.00648509 -4.3399 -0.426011
rclavicle -1.07344e-014 7.55382e-015
rhumerus 82.2465 -3.49181 -73.7054
rradius 7.92031
rwrist 49.612
rhand -12.7777 9.00711
rfingers 7.12502
rthumb 13.3075 -20.548
lclavicle -1.07344e-014 7.55382e-015
lhumerus 81.9016 -3.3716 54.0796
lradius 10.8098
lwrist -38.4539
lhand -19.1401 -9.51878
lfingers 7.12502
lthumb 7.16996 20.3398
rfemur -61.9527 -11.9603 12.2217
rtibia 109.393
rfoot -32.5171 22.8764
rtoes -23.6386
lfemur -64.5248 6.7533 -21.9164
ltibia 111.862
lfoot -24.0918 -10.6432
ltoes -23.2595
128
root 0.57098 13.9099 3.52268 -175.487 -6.57215 177.065
lowerback 22.6838 0.481226 3.92496
upperback 12.2273 -1.33314 0.111945
thorax 0.736269 -1.58052 -1.83631
lowerneck -19.2621 -3.37486 3.03104
upperneck -9.71458 -6.88721 1.73959
head 0.0131463 -4.31318 -0.332948
rclavicle 1.63003e-014 -9.14409e-015
rhumerus 82.2374 -3.47248 -73.6416
rradius 8.02
rwrist 49.6911
rhand -12.8919 9.0394
rfingers 7.12502
rthumb 13.1974 -20.5229
lclavicle 1.63003e-014 -9.14409e-015
lhumerus 81.8903 -3.26569 54.6808
lradius 10.8565
lwrist -39.0887
lhand -18.8446 -9.34626
lfingers 7.12502
lthumb 7.45517 20.5024
rfemur -60.4817 -11.2806 12.2866
rtibia 107.299
rfoot -32.5689 22.0973
rtoes -23.5556
lfemur -63.1651 6.27436 -21.8973
ltibia 109.834
lfoot -23.758 -10.5671
ltoes -22.5295
129
root 0.574641 14.134 3.48481 -175.435 -6.73178 177.008
lowerback 22.2448 0.44737 3.88983
upperback 12.2426 -1.37493 0.166222
thorax 0.964843 -1.59007 -1.76054
lowerneck -19.1844 -3.43699 2.8892
upperneck -9.54157 -6.89841 1.87329
head 0.067103 -4.29216 -0.271098
rclavicle 1.39149e-014 -1.63003e-014
rhumerus 82.2016 -3.40113 -73.5477
rradius 8.18349
rwrist 49.4716
rhand -12.774 9.06681
rfingers 7.12502
rthumb 13.3111 -20.4881
lclavicle 1.39149e-014 -1.63003e-014
lhumerus 81.8271 -3.1531 55.2515
lradius 10.935
lwrist -39.6651
lhand -18.5029 -9.16509
lfingers 7.12502
lthumb 7.78496 20.6716
rfemur -58.9471 -10.7038 12.3533
rtibia 105.158
rfoot -32.6206 21.3555
rtoes -23.5847
lfemur -61.764 5.79172 -21.8726
ltibia 107.766
lfoot -23.4361 -10.4402
ltoes -22.1006
130
root 0.577838 14.3619 3.44407 -175.412 -6.88239 176.953
lowerback 21.8033 0.426604 3.85373
upperback 12.2592 -1.40031 0.220132
thorax 1.19814 -1.59169 -1.68871
lowerneck -19.1453 -3.53925 2.7832
upperneck -9.36298 -6.9763 1.96514
head 0.125886 -4.30729 -0.233151
rclavicle 6.75868e-015 1.82882e-014
rhumerus 82.1299 -3.36319 -73.4482
rradius 8.38001
rwrist 49.1877
rhand -12.4969 9.1134
rfingers 7.12502
rthumb 13.5782 -20.4238
lclavicle 6.75868e-015 1.82882e-014
lhumerus 81.7308 -3.08315 56.0229
lradius 11.0407
lwrist -40.4545
lhand -18.1909 -9.0058
lfingers 7.12502
lthumb 8.08609 20.8195
rfemur -57.3596 -10.1801 12.4166
rtibia 102.962
rfoot -32.6555 20.6095
rtoes -23.706
lfemur -60.2892 5.33668 -21.8511
ltibia 105.631
lfoot -23.0937 -10.3369
ltoes -21.524
